<?xml version="1.0" standalone="no"?>
<!DOCTYPE svg PUBLIC "-//W3C//DTD SVG 20010904//EN"
 "http://www.w3.org/TR/2001/REC-SVG-20010904/DTD/svg10.dtd">
<svg version="1.0" xmlns="http://www.w3.org/2000/svg"
 viewBox="0 0 258.000000 96.000000"
 preserveAspectRatio="xMidYMid meet">

<g transform="translate(0.000000,96.000000) scale(0.100000,-0.100000)"
 stroke="none">
<path d="M1300 903 c-36 -10 -85 -30 -110 -45 -63 -36 -146 -128 -175 -190
-13 -29 -53 -170 -90 -313 -36 -143 -68 -268 -71 -277 -5 -16 2 -18 46 -18
121 0 151 37 214 260 26 91 54 189 63 219 38 134 198 217 320 166 21 -9 45
-23 55 -32 16 -14 18 -14 28 11 5 15 10 30 10 34 0 4 16 32 36 62 44 67 40 77
-47 108 -87 31 -196 37 -279 15z"/>
<path d="M1995 906 c-83 -20 -146 -56 -211 -120 -76 -76 -111 -149 -125 -259
-6 -45 -13 -97 -15 -114 -7 -49 -62 -113 -124 -146 -49 -25 -63 -28 -126 -25
-56 3 -79 9 -111 30 l-40 26 -28 -100 c-27 -98 -28 -101 -9 -115 34 -25 98
-37 199 -37 79 0 112 5 156 22 83 33 146 79 195 141 57 72 84 145 94 252 10
101 32 152 90 201 133 114 336 51 387 -121 55 -191 -166 -373 -336 -276 -24
14 -44 24 -45 23 -14 -32 -70 -139 -82 -155 -16 -23 -16 -23 40 -49 224 -102
483 -8 590 216 29 61 31 72 31 180 0 108 -2 119 -31 180 -91 191 -300 294
-499 246z"/>
<path d="M50 903 c-1 -22 125 -463 132 -463 4 0 8 5 8 12 0 6 29 109 65 229
36 119 65 220 65 223 0 9 -270 7 -270 -1z"/>
<path d="M445 898 c-31 -89 -195 -716 -195 -747 0 -62 34 -93 97 -89 l47 3
118 410 c64 226 118 416 118 423 0 9 -25 12 -90 12 -64 0 -92 -4 -95 -12z"/>
<path d="M758 893 c-3 -10 -49 -177 -103 -371 -103 -376 -107 -401 -63 -442
16 -15 36 -20 73 -20 l51 0 102 358 c56 196 111 387 121 425 l20 67 -99 0
c-85 0 -98 -2 -102 -17z"/>
</g>
</svg>
