<?xml version="1.0" standalone="no"?>
<!DOCTYPE svg PUBLIC "-//W3C//DTD SVG 20010904//EN"
 "http://www.w3.org/TR/2001/REC-SVG-20010904/DTD/svg10.dtd">
<svg version="1.0" xmlns="http://www.w3.org/2000/svg"
 width="512.000000pt" height="512.000000pt" viewBox="0 0 512.000000 512.000000"
 preserveAspectRatio="xMidYMid meet">

<g transform="translate(0.000000,512.000000) scale(0.100000,-0.100000)"
stroke="none">
<path d="M4642 4702 c-262 -257 -313 -311 -312 -334 0 -35 41 -65 70 -52 30
14 628 603 635 625 10 30 -20 69 -53 69 -22 -1 -86 -58 -340 -308z"/>
<path d="M4320 4993 c-24 -9 -301 -286 -311 -312 -13 -34 12 -71 49 -71 23 0
57 30 185 158 86 87 157 164 157 171 0 14 -45 61 -57 60 -4 0 -15 -3 -23 -6z"/>
<path d="M3231 4518 c-124 -122 -230 -230 -235 -239 -14 -28 -2 -43 52 -61 57
-21 120 -77 147 -133 27 -57 32 -155 10 -212 -22 -57 -76 -118 -129 -145 -49
-25 -137 -34 -192 -19 -79 21 -154 94 -180 175 -6 16 -20 36 -31 43 -21 14
-32 4 -245 -212 -123 -125 -227 -235 -232 -245 -5 -10 -6 -29 -3 -42 4 -13
109 -125 234 -250 255 -254 255 -254 287 -167 21 60 74 122 130 152 58 31 184
31 241 0 117 -62 172 -197 133 -325 -18 -60 -82 -125 -157 -162 -36 -17 -67
-38 -69 -46 -1 -9 99 -116 231 -248 197 -196 237 -232 262 -232 25 0 66 37
272 242 201 200 243 238 249 222 20 -61 33 -83 69 -120 94 -94 241 -99 341
-11 66 58 88 107 88 192 0 78 -15 118 -68 173 -33 35 -94 72 -121 72 -8 0 -15
3 -15 7 0 4 106 114 235 243 212 213 235 239 235 269 0 31 -49 83 -617 655
-339 341 -626 626 -637 633 -12 7 -29 12 -40 13 -11 0 -110 -90 -245 -222z"/>
<path d="M4915 4361 c-16 -10 -90 -79 -162 -153 -140 -141 -154 -166 -115
-201 40 -36 60 -24 219 136 160 161 171 179 133 217 -25 25 -37 25 -75 1z"/>
<path d="M1398 2683 c-238 -237 -258 -255 -258 -227 0 123 -111 240 -239 251
-209 19 -354 -194 -259 -384 40 -80 138 -143 222 -143 28 0 11 -20 -222 -253
-232 -233 -252 -256 -252 -287 0 -33 40 -75 628 -662 551 -552 631 -628 657
-628 26 0 60 30 243 213 249 249 245 241 158 329 -93 95 -110 208 -49 327 37
71 104 111 198 119 86 6 141 -15 217 -84 41 -38 66 -54 86 -54 23 0 65 37 240
213 158 159 212 219 212 237 0 18 -63 88 -255 280 l-254 255 42 2 c99 6 199
90 228 191 15 54 6 138 -20 190 -26 51 -99 115 -149 130 -164 49 -325 -51
-350 -219 l-7 -51 -239 243 c-132 134 -249 249 -260 256 -12 7 -30 12 -41 13
-12 0 -113 -93 -277 -257z"/>
<path d="M262 977 c-117 -118 -152 -158 -152 -178 0 -30 28 -59 56 -59 23 0
334 308 334 331 0 28 -31 59 -58 59 -22 0 -58 -31 -180 -153z"/>
<path d="M406 504 c-173 -169 -317 -316 -320 -328 -8 -32 19 -66 54 -66 25 0
74 44 332 297 167 164 309 308 316 321 12 22 12 28 -6 51 -40 54 -41 53 -376
-275z"/>
<path d="M883 368 c-84 -84 -156 -160 -159 -171 -9 -28 22 -67 54 -67 40 0
332 292 332 332 0 27 -31 58 -59 58 -8 0 -83 -68 -168 -152z"/>
</g>
</svg>
